<?xml version="1.0" encoding="utf-8"?>
<!-- Generator: Adobe Illustrator 21.1.0, SVG Export Plug-In . SVG Version: 6.00 Build 0)  -->
<svg version="1.1" id="Layer_1" xmlns="http://www.w3.org/2000/svg" xmlns:xlink="http://www.w3.org/1999/xlink" x="0px" y="0px"
	 viewBox="0 0 115.3 90.4" style="enable-background:new 0 0 115.3 90.4;" xml:space="preserve">
<style type="text/css">
	.st0{opacity:0.4;}
	.st1{fill:#99885B;}
</style>
<g>
	<g class="st0">
		<polygon class="st1" points="88.1,45.2 57.7,75.7 70.1,88.1 113.1,45.2 70.1,2.3 57.7,14.7 		"/>
	</g>
	<g>
		<path class="st1" d="M115.3,45.2L70.1,90.4L55.4,75.7l30.5-30.5L55.4,14.7L70.1,0L115.3,45.2z M70.1,85.9l40.7-40.7L70.1,4.5
			L59.9,14.7l30.5,30.5L59.9,75.7L70.1,85.9z"/>
	</g>
</g>
<g>
	<path class="st1" d="M59.9,75.7L45.2,90.4L0,45.2L45.2,0l14.7,14.7L29.5,45.2L59.9,75.7z M24.9,45.2l30.5-30.5L45.2,4.5L4.5,45.2
		l40.7,40.7l10.2-10.2L24.9,45.2z"/>
</g>
</svg>
