<?xml version="1.0" encoding="utf-8"?>
<!-- Generator: Adobe Illustrator 21.1.0, SVG Export Plug-In . SVG Version: 6.00 Build 0)  -->
<svg version="1.1" id="Layer_1" xmlns="http://www.w3.org/2000/svg" xmlns:xlink="http://www.w3.org/1999/xlink" x="0px" y="0px"
	 viewBox="0 0 90.4 115.3" style="enable-background:new 0 0 90.4 115.3;" xml:space="preserve">
<style type="text/css">
	.st0{opacity:0.4;}
	.st1{fill:#99885B;}
</style>
<g>
	<g class="st0">
		<polygon class="st1" points="45.2,88.1 14.7,57.7 2.3,70.1 45.2,113.1 88.1,70.1 75.7,57.7 		"/>
	</g>
	<g>
		<path class="st1" d="M45.2,115.3L0,70.1l14.7-14.7l30.5,30.5l30.5-30.5l14.7,14.7L45.2,115.3z M4.5,70.1l40.7,40.7l40.7-40.7
			L75.7,59.9L45.2,90.4L14.7,59.9L4.5,70.1z"/>
	</g>
</g>
<g>
	<path class="st1" d="M14.7,59.9L0,45.2L45.2,0l45.2,45.2L75.7,59.9L45.2,29.5L14.7,59.9z M45.2,24.9l30.5,30.5l10.2-10.2L45.2,4.5
		L4.5,45.2l10.2,10.2L45.2,24.9z"/>
</g>
</svg>
