<?xml version="1.0" encoding="utf-8"?>
<!-- Generator: Adobe Illustrator 21.1.0, SVG Export Plug-In . SVG Version: 6.00 Build 0)  -->
<svg version="1.1" id="Layer_1" xmlns="http://www.w3.org/2000/svg" xmlns:xlink="http://www.w3.org/1999/xlink" x="0px" y="0px"
	 viewBox="0 0 90.4 115.3" style="enable-background:new 0 0 90.4 115.3;" xml:space="preserve">
<style type="text/css">
	.st0{opacity:0.4;}
	.st1{fill:#99885B;}
</style>
<g>
	<g class="st0">
		<polygon class="st1" points="45.2,27.2 75.7,57.6 88.1,45.2 45.2,2.2 2.3,45.2 14.7,57.6 		"/>
	</g>
	<g>
		<path class="st1" d="M45.2,0l45.2,45.2L75.7,59.9L45.2,29.4L14.7,59.9L0,45.2L45.2,0z M85.9,45.2L45.2,4.5L4.5,45.2l10.2,10.2
			l30.5-30.5l30.5,30.5L85.9,45.2z"/>
	</g>
</g>
<g>
	<path class="st1" d="M75.7,55.4l14.7,14.7l-45.2,45.2L0,70.1l14.7-14.7l30.5,30.4L75.7,55.4z M45.2,90.4L14.7,59.9L4.5,70.1
		l40.7,40.7l40.7-40.7L75.7,59.9L45.2,90.4z"/>
</g>
</svg>
