<?xml version="1.0" encoding="utf-8"?>
<!-- Generator: Adobe Illustrator 21.1.0, SVG Export Plug-In . SVG Version: 6.00 Build 0)  -->
<svg version="1.1" id="Layer_1" xmlns="http://www.w3.org/2000/svg" xmlns:xlink="http://www.w3.org/1999/xlink" x="0px" y="0px"
	 viewBox="0 0 90.4 115.3" style="enable-background:new 0 0 90.4 115.3;" xml:space="preserve">
<style type="text/css">
	.st0{fill:#99885B;}
	.st1{opacity:0.4;}
</style>
<g>
	<path class="st0" d="M45.2,115.3L0,70.1l14.7-14.7l30.5,30.5l30.5-30.5l14.7,14.7L45.2,115.3z M4.5,70.1l40.7,40.7l40.7-40.7
		L75.7,59.9L45.2,90.4L14.7,59.9L4.5,70.1z"/>
</g>
<g>
	<path class="st0" d="M75.7,59.9L45.2,29.5L14.7,59.9L0,45.2L45.2,0l45.2,45.2L75.7,59.9z M45.2,24.9l30.5,30.5l10.2-10.2L45.2,4.5
		L4.5,45.2l10.2,10.2L45.2,24.9z"/>
</g>
<g>
	<g class="st1">
		
			<rect x="23.7" y="36.1" transform="matrix(0.7071 -0.7071 0.7071 0.7071 -27.5396 48.8536)" class="st0" width="43.1" height="43.1"/>
	</g>
	<g>
		<path class="st0" d="M45.2,90.4L12.5,57.7l32.7-32.7l32.7,32.7L45.2,90.4z M17,57.7l28.2,28.2l28.2-28.2L45.2,29.5L17,57.7z"/>
	</g>
</g>
</svg>
